<svg width="35" height="35" viewBox="0 0 35 35" fill="none" xmlns="http://www.w3.org/2000/svg">
<path d="M12.8068 12.6867H9.64091V7.90528H12.8068V4.76548H9.64091V3.17168C9.64091 1.40255 11.0568 0 12.8068 0H22.3205V11.0929L26.25 8.70219L30.2273 11.0929V0H31.8182C33.4886 0 35 1.53005 35 3.17168V25.4372C35 27.0788 33.4886 28.6248 31.8182 28.6248H12.8068C11.1364 28.6248 9.64091 27.1107 9.64091 25.4372V23.8434H12.8068V20.6557H9.64091V15.8743H12.8068V12.6867ZM0 27.031H3.18182V22.2495H0V19.0619H3.18182V14.2805H0V11.0929H3.18182V6.31148H6.36364V11.0929H3.18182V14.2805H6.36364V19.0619H3.18182V22.2495H6.36364V27.031H3.18182V30.2186H6.36364V31.8124H31.8182V35H6.36364C5.51977 35 4.71046 34.6642 4.11375 34.0664C3.51704 33.4686 3.18182 32.6578 3.18182 31.8124V30.2186H0V27.031Z" fill="url(#paint0_linear_120_257)"/>
<defs>
<linearGradient id="paint0_linear_120_257" x1="35" y1="9.83477e-07" x2="-4.85352e-07" y2="34" gradientUnits="userSpaceOnUse">
<stop stop-color="#5865E1"/>
<stop offset="1" stop-color="#1B27A2"/>
</linearGradient>
</defs>
</svg>
