<svg width="35" height="35" viewBox="0 0 35 35" fill="none" xmlns="http://www.w3.org/2000/svg">
<path d="M17.5 27.6316C17.5 29.4737 17.9375 31.1684 18.6725 32.6789L17.5 33.8026L14.9625 31.3711C5.95 22.7684 0 17.0763 0 10.1316C0 4.43947 4.235 0 9.625 0C12.67 0 15.5925 1.49211 17.5 3.83158C19.4075 1.49211 22.33 0 25.375 0C30.765 0 35 4.43947 35 10.1316C35 12.7658 34.125 15.2158 32.585 17.7026C31.2025 17.0026 29.645 16.5789 28 16.5789C22.2075 16.5789 17.5 21.5342 17.5 27.6316ZM29.75 20.2632H26.25V25.7895H21V29.4737H26.25V35H29.75V29.4737H35V25.7895H29.75V20.2632Z" fill="url(#paint0_linear_120_260)"/>
<defs>
<linearGradient id="paint0_linear_120_260" x1="35" y1="-2.08616e-06" x2="-2.08616e-06" y2="35" gradientUnits="userSpaceOnUse">
<stop stop-color="#F13E5B"/>
<stop offset="1" stop-color="#EE163A"/>
</linearGradient>
</defs>
</svg>
