<svg width="35" height="35" viewBox="0 0 35 35" fill="none" xmlns="http://www.w3.org/2000/svg">
<path d="M29.8725 5.1275L27.405 7.595C29.925 10.1325 31.5 13.6325 31.5 17.5C31.5 21.213 30.025 24.774 27.3995 27.3995C24.774 30.025 21.213 31.5 17.5 31.5C13.787 31.5 10.226 30.025 7.60051 27.3995C4.975 24.774 3.5 21.213 3.5 17.5C3.5 10.36 8.8375 4.48 15.75 3.6225V7.1575C10.78 7.9975 7 12.3025 7 17.5C7 20.2848 8.10625 22.9555 10.0754 24.9246C12.0445 26.8938 14.7152 28 17.5 28C20.2848 28 22.9555 26.8938 24.9246 24.9246C26.8938 22.9555 28 20.2848 28 17.5C28 14.595 26.8275 11.97 24.92 10.08L22.4525 12.5475C23.7125 13.825 24.5 15.575 24.5 17.5C24.5 19.3565 23.7625 21.137 22.4497 22.4497C21.137 23.7625 19.3565 24.5 17.5 24.5C15.6435 24.5 13.863 23.7625 12.5503 22.4497C11.2375 21.137 10.5 19.3565 10.5 17.5C10.5 14.245 12.74 11.5325 15.75 10.745V14.49C14.7 15.1025 14 16.205 14 17.5C14 18.4283 14.3687 19.3185 15.0251 19.9749C15.6815 20.6313 16.5717 21 17.5 21C18.4283 21 19.3185 20.6313 19.9749 19.9749C20.6313 19.3185 21 18.4283 21 17.5C21 16.205 20.3 15.085 19.25 14.49V0H17.5C15.2019 0 12.9262 0.452651 10.803 1.33211C8.67984 2.21157 6.75066 3.50061 5.12563 5.12563C1.84374 8.40752 0 12.8587 0 17.5C0 22.1413 1.84374 26.5925 5.12563 29.8744C6.75066 31.4994 8.67984 32.7884 10.803 33.6679C12.9262 34.5474 15.2019 35 17.5 35C22.1413 35 26.5925 33.1563 29.8744 29.8744C33.1563 26.5925 35 22.1413 35 17.5C35 12.67 33.04 8.295 29.8725 5.1275Z" fill="url(#paint0_linear_120_254)"/>
<defs>
<linearGradient id="paint0_linear_120_254" x1="35" y1="-2.08616e-06" x2="2.08616e-06" y2="35" gradientUnits="userSpaceOnUse">
<stop stop-color="#59E3A2"/>
<stop offset="1" stop-color="#45AD7D"/>
</linearGradient>
</defs>
</svg>
