<svg width="20" height="20" viewBox="0 0 20 20" fill="none" xmlns="http://www.w3.org/2000/svg">
<path d="M9.95723 0.520102C9.26117 -0.173367 8.14039 -0.173367 7.45613 0.520102L0.778646 7.2874C0.0943815 7.98087 0.0943815 9.11672 0.778646 9.82215C1.48651 10.5395 2.61908 10.4917 3.27975 9.82215L9.95723 3.05485C10.2886 2.71858 10.4748 2.26274 10.4748 1.78748C10.4748 1.31221 10.2886 0.856375 9.95723 0.520102ZM13.296 3.90375C13.1325 3.73602 12.9377 3.60284 12.7231 3.51195C12.5084 3.42105 12.2781 3.37425 12.0454 3.37425C11.8128 3.37425 11.5824 3.42105 11.3678 3.51195C11.1531 3.60284 10.9584 3.73602 10.7949 3.90375L4.11739 10.6711C3.95188 10.8368 3.82047 11.0341 3.73078 11.2517C3.6411 11.4692 3.59491 11.7026 3.59491 11.9384C3.59491 12.1742 3.6411 12.4076 3.73078 12.6252C3.82047 12.8427 3.95188 13.0401 4.11739 13.2058C4.82525 13.9232 5.95782 13.8634 6.61849 13.2058L13.296 6.4385C13.9802 5.74503 13.9802 4.60918 13.296 3.90375ZM14.5465 11.9384L19.478 16.9362C20.174 17.6297 20.174 18.7655 19.478 19.4709C18.7819 20.1764 17.6611 20.1764 16.9768 19.4709L12.0454 14.4732L9.95723 16.5894C9.26117 17.2829 8.14039 17.2829 7.45613 16.5894C6.76006 15.884 6.76006 14.7482 7.45613 14.0427L14.1336 7.2874C14.2971 7.11967 14.4918 6.98649 14.7065 6.8956C14.9212 6.8047 15.1515 6.7579 15.3842 6.7579C15.6168 6.7579 15.8471 6.8047 16.0618 6.8956C16.2765 6.98649 16.4712 7.11967 16.6347 7.2874C17.319 7.98087 17.319 9.11672 16.6347 9.82215L14.5465 11.9384ZM3.5393 16.4699C3.5393 14.5688 1.58089 11.6873 1.58089 11.6873C1.58089 11.6873 0 15.0112 0 16.4699C0 17.9286 0.70786 18.8612 1.58089 18.8612H1.95841C2.83144 18.8612 3.5393 18.3709 3.5393 16.4699Z" fill="#1A202C"/>
</svg>
