<svg width="48" height="49" viewBox="0 0 48 49" fill="none" xmlns="http://www.w3.org/2000/svg">
<path d="M20.6974 16.8485C20.7581 16.8515 20.8173 16.8686 20.8706 16.8986L20.8957 16.9155L31.8649 24.299L31.8651 24.2992C31.9198 24.3359 31.9652 24.3861 31.9967 24.4457C32.0283 24.5053 32.045 24.5721 32.045 24.6403C32.045 24.7084 32.0283 24.7753 31.9967 24.8349C31.9652 24.8944 31.9198 24.9446 31.8651 24.9814L31.8648 24.9816L20.8979 32.3651L20.8977 32.3652C20.8377 32.4056 20.7685 32.4285 20.6974 32.4321C20.6263 32.4356 20.5554 32.4196 20.492 32.3854C20.4286 32.3513 20.3749 32.3 20.3372 32.2365C20.2994 32.173 20.2791 32.1 20.279 32.0251V17.2554C20.2791 17.1806 20.2994 17.1075 20.3372 17.044C20.3749 16.9806 20.4286 16.9293 20.492 16.8951C20.5554 16.8609 20.6263 16.845 20.6974 16.8485ZM1.29675 24.6403C1.29675 37.4514 11.5792 47.8448 24.2746 47.8448C36.9699 47.8448 47.2524 37.4514 47.2524 24.6403C47.2524 11.8292 36.9699 1.43579 24.2746 1.43579C11.5792 1.43579 1.29675 11.8292 1.29675 24.6403Z" fill="url(#paint0_linear_173_21)" stroke="white"/>
<defs>
<linearGradient id="paint0_linear_173_21" x1="1.79675" y1="24.6403" x2="46.7524" y2="24.6403" gradientUnits="userSpaceOnUse">
<stop stop-color="#767FE6"/>
<stop offset="1" stop-color="#8DF5D1"/>
</linearGradient>
</defs>
</svg>
