<svg width="21" height="23" viewBox="0 0 21 23" fill="none" xmlns="http://www.w3.org/2000/svg">
<path d="M17.2499 16.0885C16.3949 16.0885 15.6299 16.426 15.0449 16.9548L7.02363 12.286C7.07988 12.0273 7.12488 11.7685 7.12488 11.4985C7.12488 11.2285 7.07988 10.9698 7.02363 10.711L14.9549 6.08728C15.5624 6.64978 16.3611 6.99853 17.2499 6.99853C18.145 6.99853 19.0034 6.64295 19.6364 6.01002C20.2693 5.37708 20.6249 4.51864 20.6249 3.62353C20.6249 2.72843 20.2693 1.86998 19.6364 1.23705C19.0034 0.604115 18.145 0.248535 17.2499 0.248535C16.3548 0.248535 15.4963 0.604115 14.8634 1.23705C14.2305 1.86998 13.8749 2.72843 13.8749 3.62353C13.8749 3.89353 13.9199 4.15228 13.9761 4.41103L6.04488 9.03478C5.43738 8.47228 4.63863 8.12353 3.74988 8.12353C2.85477 8.12353 1.99633 8.47911 1.36339 9.11205C0.730457 9.74498 0.374878 10.6034 0.374878 11.4985C0.374878 12.3936 0.730457 13.2521 1.36339 13.885C1.99633 14.518 2.85477 14.8735 3.74988 14.8735C4.63863 14.8735 5.43738 14.5248 6.04488 13.9623L14.0549 18.631C13.9986 18.8673 13.9649 19.1148 13.9649 19.3735C13.9649 21.1848 15.4386 22.6473 17.2499 22.6473C19.0611 22.6473 20.5349 21.1848 20.5349 19.3735C20.5349 18.5023 20.1888 17.6667 19.5727 17.0507C18.9567 16.4346 18.1211 16.0885 17.2499 16.0885Z" fill="white"/>
</svg>
