<svg width="41" height="40" viewBox="0 0 41 40" fill="none" xmlns="http://www.w3.org/2000/svg">
<path d="M20.3273 0C31.3811 0 40.3412 8.95391 40.3412 20C40.3412 31.0461 31.3811 40 20.3273 40C9.27355 40 0.313416 31.0461 0.313416 20C0.313416 8.95391 9.27355 0 20.3273 0ZM27.2312 28.1522C27.5993 27.0235 29.324 15.7748 29.5372 13.5583C29.6016 12.887 29.3893 12.4409 28.9733 12.2417C28.4704 12 27.7255 12.1209 26.8614 12.4322C25.6762 12.8591 10.5249 19.2878 9.64946 19.66C8.81932 20.0122 8.03443 20.3965 8.03443 20.953C8.03443 21.3443 8.26677 21.5643 8.90721 21.793C9.57376 22.0304 11.2523 22.5391 12.2434 22.8122C13.198 23.0757 14.2849 22.847 14.894 22.4687C15.5396 22.0678 22.9909 17.0852 23.5261 16.6487C24.0603 16.2122 24.4867 16.7713 24.0499 17.2087C23.6131 17.6452 18.4982 22.6061 17.8238 23.293C17.005 24.127 17.5863 24.9913 18.1354 25.3374C18.7628 25.7322 23.2746 28.7565 23.9542 29.2417C24.6338 29.727 25.323 29.947 25.9538 29.947C26.5847 29.947 26.9171 29.1165 27.2312 28.1522Z" fill="#4A5568"/>
</svg>
