<svg width="41" height="40" viewBox="0 0 41 40" fill="none" xmlns="http://www.w3.org/2000/svg">
<path d="M20.4684 0C9.43298 0 0.454597 8.97217 0.454597 20C0.454597 23.4435 1.34478 26.8296 3.0329 29.8174L0.486793 38.8956C0.403257 39.1939 0.484183 39.5139 0.699984 39.7356C0.866186 39.907 1.09243 40 1.32476 40C1.39438 40 1.46486 39.9913 1.5336 39.9748L11.0149 37.6278C13.91 39.1809 17.1705 40 20.4684 40C31.5039 40 40.4823 31.0278 40.4823 20C40.4823 8.97217 31.5039 0 20.4684 0ZM30.5363 27.0574C30.1081 28.2417 28.0545 29.3226 27.0678 29.4678C26.1819 29.5974 25.0612 29.653 23.8308 29.267C23.085 29.0322 22.1278 28.7209 20.9018 28.1983C15.7478 26.0017 12.382 20.8809 12.1244 20.5426C11.8677 20.2043 10.0264 17.7939 10.0264 15.2991C10.0264 12.8043 11.3534 11.5774 11.8251 11.0696C12.2967 10.5617 12.8527 10.4348 13.1956 10.4348C13.5384 10.4348 13.8804 10.4391 14.1806 10.453C14.4965 10.4687 14.9202 10.3339 15.3371 11.3235C15.7652 12.3391 16.7928 14.8339 16.9199 15.0887C17.0487 15.3426 17.134 15.6391 16.9634 15.9774C16.7928 16.3157 16.7076 16.527 16.45 16.8235C16.1924 17.12 15.9105 17.4843 15.679 17.7122C15.4215 17.9652 15.1543 18.2391 15.4537 18.747C15.753 19.2548 16.7841 20.9148 18.3122 22.2591C20.2744 23.9861 21.9303 24.5217 22.4437 24.7757C22.9571 25.0296 23.2573 24.987 23.5567 24.6487C23.856 24.3096 24.841 23.1678 25.183 22.6609C25.525 22.1539 25.8678 22.2374 26.3394 22.407C26.8111 22.5757 29.3372 23.8017 29.8506 24.0557C30.364 24.3096 30.7068 24.4365 30.8356 24.6478C30.9644 24.8583 30.9644 25.8739 30.5363 27.0574Z" fill="#4A5568"/>
</svg>
