<svg width="20" height="20" viewBox="0 0 20 20" fill="none" xmlns="http://www.w3.org/2000/svg">
<path d="M19.5826 3.1242C19.4687 2.51923 19.2455 1.96753 18.9353 1.52432C18.625 1.08111 18.2386 0.761928 17.8147 0.598726C16.2545 1.19209e-07 10 0 10 0C10 0 3.74554 -1.19209e-07 2.18527 0.595541C1.76121 0.758213 1.37461 1.07721 1.0643 1.52051C0.753989 1.9638 0.530891 2.51578 0.417411 3.12102C-8.9407e-08 5.35032 0 10 0 10C0 10 -8.9407e-08 14.6497 0.417411 16.8758C0.647321 18.1051 1.32589 19.0732 2.18527 19.4013C3.74554 20 10 20 10 20C10 20 16.2545 20 17.8147 19.4013C18.6763 19.0732 19.3527 18.1051 19.5826 16.8758C20 14.6497 20 10 20 10C20 10 20 5.35032 19.5826 3.1242ZM8.01339 14.2675V5.73248L13.192 9.96815L8.01339 14.2675Z" fill="#1A202C"/>
</svg>
